<svg xmlns="http://www.w3.org/2000/svg" width="375" viewBox="0 0 375 375" height="375" version="1.0"><defs><clipPath id="a"><path d="M 38 66 L 262 66 L 262 309.679688 L 38 309.679688 Z M 38 66"/></clipPath></defs><path fill="#D4E8F5" d="M 198.546875 363.933594 C 295.996094 363.933594 374.988281 284.9375 374.988281 187.488281 C 374.988281 90.039062 295.996094 11.046875 198.546875 11.046875 L 22.101562 11.046875 L 22.101562 187.488281 C 22.070312 284.9375 101.09375 363.933594 198.546875 363.933594 Z M 198.546875 363.933594"/><path fill="#7FC8F0" d="M 170.035156 348.625 C 259.027344 348.625 331.164062 276.488281 331.164062 187.496094 C 331.164062 98.503906 259.027344 26.367188 170.035156 26.367188 L 8.90625 26.367188 L 8.90625 187.496094 C 8.878906 276.488281 81.042969 348.625 170.035156 348.625 Z M 170.035156 348.625"/><g clip-path="url(#a)"><path fill="#162A3D" d="M 137.890625 235.007812 C 134.574219 234.546875 131.070312 232.582031 127.933594 230.214844 C 123.34375 226.757812 119.625 222.589844 118.328125 220.816406 C 120.648438 220.230469 125.871094 219.597656 130.554688 219.027344 C 134.46875 218.546875 138.015625 218.117188 139.371094 217.765625 C 141.351562 217.25 142.195312 217.515625 143.894531 218.042969 C 144.722656 218.300781 145.734375 218.617188 147.121094 218.941406 C 147.730469 219.390625 148.363281 220.816406 148.921875 222.644531 C 149.71875 225.269531 150.222656 228.578125 150.222656 231.179688 C 150.222656 233.015625 150.957031 234.402344 152.089844 235.636719 C 147.015625 235.796875 141.855469 235.566406 137.890625 235.007812 Z M 117.839844 220.023438 C 117.769531 219.738281 117.820312 219.90625 117.902344 220.160156 C 117.875 220.105469 117.855469 220.058594 117.839844 220.023438 Z M 154.273438 211.425781 C 154.070312 207.890625 152.800781 205.777344 151.667969 204.578125 C 151.898438 204.472656 152.140625 204.367188 152.386719 204.257812 C 155.394531 202.921875 159.386719 201.15625 162.867188 201.859375 C 165.640625 202.414062 170.386719 205.496094 174.519531 208.175781 C 177.445312 210.074219 180.074219 211.78125 181.699219 212.378906 C 183.648438 213.101562 185.445312 213.367188 186.78125 213.5625 C 187.445312 213.660156 187.851562 212.875 187.941406 213.113281 C 187.789062 213.394531 186.949219 214.152344 185.671875 215.011719 C 184.15625 216.046875 182.109375 217 179.914062 217.125 C 179.410156 217.152344 178.894531 217.132812 178.375 217.058594 C 176.160156 216.75 173.53125 216.203125 170.984375 215.671875 C 166.972656 214.832031 163.167969 214.039062 161.195312 214.230469 C 160.066406 214.34375 158.675781 214.792969 157.101562 215.304688 C 155.398438 215.855469 153.460938 216.480469 151.570312 216.761719 C 153.121094 215.777344 154.433594 214.175781 154.273438 211.425781 Z M 178.246094 221.066406 C 177.164062 221.929688 176.324219 223.367188 175.34375 225.050781 C 173.917969 227.496094 172.148438 230.519531 169.117188 232.511719 C 166.847656 234 162.132812 234.921875 156.761719 235.371094 C 156.304688 235.410156 155.84375 235.445312 155.378906 235.476562 C 153.753906 234.148438 152.558594 232.855469 152.558594 231.179688 C 152.558594 228.363281 152.023438 224.796875 151.160156 221.964844 C 150.855469 220.964844 150.5 220.042969 150.097656 219.25 C 152.765625 219.171875 155.492188 218.292969 157.8125 217.535156 C 159.265625 217.066406 160.550781 216.652344 161.417969 216.566406 C 163.035156 216.410156 166.675781 217.167969 170.503906 217.96875 C 173.09375 218.507812 175.765625 219.066406 178.054688 219.382812 C 178.640625 219.46875 179.226562 219.492188 179.804688 219.472656 C 179.503906 219.90625 179.023438 220.449219 178.246094 221.066406 Z M 119.019531 94.773438 C 113.667969 93.390625 106.019531 91.421875 99.929688 90.835938 C 93.839844 90.25 85.382812 89.902344 78.414062 90.460938 C 73.050781 90.882812 68.484375 91.867188 66.316406 93.714844 C 63.515625 96.097656 59.945312 97.726562 57.714844 98.597656 C 58.855469 95.421875 60.839844 91.394531 63.757812 87.714844 C 66.925781 83.71875 71.1875 80.214844 76.660156 78.8125 C 82.207031 77.394531 89.324219 78.269531 96.167969 80.042969 C 107.582031 83.007812 118.089844 88.375 119.59375 89.925781 C 121.457031 91.847656 123.089844 93.953125 124.503906 96.207031 C 123.964844 96.070312 121.859375 95.5 119.019531 94.773438 Z M 158.675781 173.300781 C 160.539062 170.636719 162.855469 168.277344 165.394531 167.023438 C 166.070312 166.691406 166.738281 166.554688 167.386719 166.585938 C 168.726562 166.648438 170.050781 167.398438 171.222656 168.480469 C 172.46875 169.636719 173.53125 171.167969 174.273438 172.6875 C 175.03125 174.210938 175.449219 175.683594 175.402344 176.703125 C 175.394531 176.808594 175.386719 176.902344 175.367188 176.996094 C 175.132812 178.167969 173.800781 179.054688 172.132812 179.65625 C 170.253906 180.335938 168.011719 180.609375 166.253906 180.527344 C 165.765625 180.507812 165.328125 180.453125 164.953125 180.378906 C 162.777344 179.941406 161.058594 180.515625 158.96875 181.210938 C 157.683594 181.640625 156.242188 182.121094 154.449219 182.402344 C 155.03125 179.765625 156.542969 176.351562 158.675781 173.300781 Z M 220.011719 137.085938 C 219.0625 136.390625 219.230469 136.503906 218.722656 136.140625 C 216.445312 134.488281 212.859375 133.941406 208.886719 133.34375 C 202.898438 132.433594 195.96875 131.382812 192.5625 126.171875 C 189.027344 120.765625 186.730469 108.472656 184.960938 98.980469 C 183.808594 92.828125 182.875 87.816406 181.839844 86.226562 C 181.378906 85.515625 181.097656 84.792969 180.972656 84.105469 C 180.820312 83.253906 180.898438 82.441406 181.164062 81.753906 C 181.417969 81.097656 181.839844 80.554688 182.390625 80.191406 C 182.710938 79.984375 183.070312 79.839844 183.464844 79.765625 C 184.695312 79.546875 189.496094 79.347656 195.230469 79.714844 C 195.296875 79.726562 195.367188 79.730469 195.4375 79.730469 C 198.90625 79.957031 202.703125 80.390625 206.25 81.15625 C 211.488281 82.273438 216.113281 84.089844 218.082031 86.949219 C 220.632812 90.667969 222.308594 101.195312 223.070312 111.410156 C 222.816406 112.535156 222.574219 113.660156 222.351562 114.773438 C 220.472656 124.105469 219.714844 132.816406 221.714844 135.113281 C 222.1875 135.652344 222.707031 135.875 223.269531 135.808594 C 223.367188 135.796875 223.457031 135.777344 223.546875 135.75 C 222.257812 136.546875 221.214844 137.152344 220.59375 137.507812 Z M 214.734375 139.371094 C 214.101562 139.410156 213.515625 139.46875 212.992188 139.546875 C 208.71875 140.183594 204.699219 143.550781 201.574219 146.167969 C 200.074219 147.421875 198.816406 148.476562 198.144531 148.847656 C 198.1875 148.648438 198.253906 148.402344 198.34375 148.113281 C 198.605469 147.25 199.070312 146.199219 199.660156 145.089844 C 201.40625 141.808594 204.183594 138.132812 206.179688 137.648438 C 206.613281 137.550781 207.144531 137.453125 207.746094 137.378906 C 209.878906 137.121094 212.632812 137.164062 214.972656 137.808594 C 216.167969 138.144531 217.242188 138.628906 218.035156 139.316406 C 216.851562 139.285156 215.738281 139.304688 214.734375 139.371094 Z M 223.515625 125.585938 C 223.460938 128.164062 223.308594 130.335938 223.0625 131.871094 C 223.015625 132.125 223.003906 132.34375 223.003906 132.53125 C 222.484375 130.503906 222.769531 126.398438 223.523438 121.484375 C 223.542969 122.929688 223.539062 124.300781 223.515625 125.585938 Z M 211.234375 71.390625 C 214.085938 71.449219 216.15625 71.898438 217.753906 72.449219 C 216.859375 73.316406 216.234375 74.140625 215.984375 74.824219 C 215.808594 75.300781 215.773438 75.753906 215.898438 76.179688 C 216.371094 77.863281 218.148438 78.046875 220.015625 77.515625 C 220.886719 77.269531 221.800781 76.855469 222.539062 76.410156 C 223.390625 75.886719 224.0625 75.257812 224.304688 74.648438 C 224.691406 73.703125 224.449219 72.917969 223.316406 72.457031 C 222.980469 72.320312 222.621094 72.140625 222.230469 71.9375 C 224.003906 70.804688 226.128906 69.769531 228.265625 69.164062 C 230.394531 68.554688 232.503906 68.386719 234.199219 69.003906 C 237.464844 70.199219 239.542969 74.21875 240.632812 77.652344 C 241.035156 78.925781 241.304688 80.125 241.441406 81.074219 C 241.507812 81.539062 241.550781 81.910156 241.5625 82.167969 C 241.074219 82.324219 240.582031 82.488281 240.097656 82.667969 C 236.292969 84.050781 232.664062 86.03125 230.738281 88.628906 C 228.992188 90.984375 226.710938 97.359375 224.746094 104.636719 C 223.773438 96.363281 222.1875 88.789062 220.007812 85.617188 C 217.644531 82.179688 212.492188 80.09375 206.738281 78.855469 C 203.992188 78.269531 201.089844 77.871094 198.289062 77.609375 C 201.226562 75.214844 206.738281 71.296875 211.234375 71.390625 Z M 220.105469 73.472656 C 220.367188 73.605469 220.609375 73.730469 220.84375 73.859375 C 221.101562 73.992188 221.34375 74.121094 221.578125 74.238281 C 221.5 74.292969 221.410156 74.347656 221.316406 74.40625 C 220.75 74.753906 220.050781 75.066406 219.378906 75.257812 C 218.847656 75.40625 218.378906 75.53125 218.214844 75.550781 C 218.445312 75.015625 219.121094 74.277344 220.105469 73.472656 Z M 252.574219 82.535156 C 252.808594 82.78125 250.804688 89.835938 248.304688 98.023438 C 245.65625 106.691406 242.222656 116.398438 239.859375 121.066406 C 239.664062 121.453125 239.460938 121.820312 239.261719 122.171875 C 236.363281 127.140625 228.902344 132.375 224.152344 135.367188 C 224.730469 134.804688 225.132812 133.730469 225.371094 132.253906 C 225.636719 130.613281 225.796875 128.332031 225.851562 125.628906 C 225.9375 121.628906 225.785156 116.703125 225.410156 111.648438 C 227.542969 102.199219 230.53125 92.84375 232.617188 90.023438 C 234.234375 87.84375 237.464844 86.117188 240.894531 84.871094 C 241.511719 84.644531 242.132812 84.433594 242.746094 84.242188 C 242.796875 84.234375 242.84375 84.222656 242.894531 84.207031 C 242.9375 84.191406 242.984375 84.175781 243.03125 84.152344 C 247.523438 82.769531 251.703125 82.199219 252.574219 82.535156 Z M 235.523438 146.648438 C 234.175781 146.566406 231.394531 144.972656 228.367188 142.980469 C 232.230469 143.898438 235.296875 145.171875 235.523438 146.648438 Z M 247.222656 187.074219 C 243.667969 193.953125 234.816406 202.265625 227.304688 207.554688 C 224.570312 209.476562 222.035156 210.984375 220.019531 211.867188 C 218.347656 212.589844 217.1875 212.898438 216.816406 212.636719 C 213.722656 205.03125 236.203125 185.453125 249.941406 174.695312 C 251.292969 173.636719 252.570312 172.65625 253.734375 171.78125 C 252.851562 174.703125 251.011719 179.734375 247.222656 187.074219 Z M 261.050781 169.429688 C 260.863281 167.914062 260.726562 166.796875 260.738281 166.363281 C 260.753906 165.773438 260.484375 165.390625 259.929688 165.203125 C 259.46875 165.046875 257.9375 165.824219 255.800781 167.351562 C 255.625 167.476562 255.441406 167.609375 255.25 167.746094 C 255.050781 167.820312 254.871094 167.945312 254.738281 168.113281 C 253.039062 169.355469 250.902344 170.964844 248.5 172.851562 C 234.234375 184.019531 210.984375 204.554688 214.652344 213.523438 C 214.808594 213.90625 215.042969 214.222656 215.351562 214.464844 C 216.464844 215.347656 218.457031 215.101562 220.957031 214.011719 C 223.125 213.066406 225.800781 211.484375 228.652344 209.476562 C 236.402344 204.019531 245.570312 195.378906 249.304688 188.148438 C 254.820312 177.464844 256.351562 171.371094 256.714844 169.578125 C 256.871094 169.46875 257.015625 169.359375 257.160156 169.261719 C 257.8125 168.796875 258.230469 168.378906 258.523438 168.058594 C 258.578125 168.546875 258.644531 169.101562 258.71875 169.714844 C 259.433594 175.460938 260.84375 186.835938 257.25 192.320312 C 254.851562 195.980469 250.3125 200.441406 244.867188 204.617188 C 239.613281 208.648438 233.546875 212.394531 227.765625 214.90625 C 219.511719 218.488281 211.050781 223.285156 206.492188 225.984375 C 210.429688 217.605469 213.671875 208.417969 216.179688 199.039062 C 221.574219 178.824219 223.5625 157.691406 221.730469 141.898438 C 222.097656 141.933594 222.46875 141.976562 222.84375 142.015625 C 227.667969 145.429688 233.40625 149.152344 235.867188 148.988281 C 237.234375 148.898438 237.980469 148.160156 237.871094 146.570312 C 237.867188 146.480469 237.855469 146.386719 237.84375 146.3125 C 237.453125 143.644531 233.457031 141.738281 228.554688 140.617188 C 227.003906 140.261719 225.355469 139.976562 223.703125 139.761719 C 223.351562 139.511719 223.007812 139.261719 222.671875 139.019531 C 226.738281 136.625 237.484375 129.875 241.285156 123.355469 C 241.484375 123.015625 241.707031 122.601562 241.949219 122.121094 C 244.367188 117.351562 247.855469 107.488281 250.542969 98.707031 C 252.734375 91.539062 254.265625 84.960938 254.207031 82.039062 C 254.464844 81.527344 254.3125 80.910156 253.863281 80.574219 C 253.84375 80.5625 253.824219 80.546875 253.804688 80.53125 C 253.789062 80.519531 253.769531 80.507812 253.753906 80.5 L 253.753906 80.503906 C 253.730469 80.484375 253.707031 80.476562 253.683594 80.464844 C 252.726562 79.976562 248.476562 80.300781 243.851562 81.503906 C 243.832031 81.265625 243.800781 81.011719 243.761719 80.746094 C 243.609375 79.691406 243.316406 78.371094 242.867188 76.945312 C 241.605469 72.980469 239.109375 68.304688 235 66.800781 C 232.789062 65.992188 230.191406 66.175781 227.628906 66.902344 C 224.953125 67.664062 222.292969 69.03125 220.210938 70.46875 C 220.078125 70.558594 219.949219 70.648438 219.824219 70.738281 C 217.910156 69.90625 215.296875 69.132812 211.28125 69.050781 C 204.726562 68.910156 196.765625 75.75 194.980469 77.359375 C 189.167969 77.023438 184.320312 77.234375 183.054688 77.460938 C 182.335938 77.589844 181.683594 77.855469 181.117188 78.230469 C 180.144531 78.859375 179.410156 79.792969 178.976562 80.90625 C 178.5625 81.984375 178.433594 83.230469 178.671875 84.519531 C 178.84375 85.507812 179.238281 86.523438 179.875 87.503906 C 180.660156 88.703125 181.554688 93.507812 182.65625 99.414062 C 184.46875 109.105469 186.8125 121.664062 190.601562 127.460938 C 194.078125 132.785156 200.238281 134.324219 206.0625 135.28125 C 205.914062 135.308594 205.773438 135.339844 205.632812 135.371094 C 202.941406 136.019531 199.585938 140.257812 197.597656 143.988281 C 196.933594 145.230469 196.410156 146.425781 196.101562 147.421875 C 195.734375 148.636719 195.667969 149.675781 196.015625 150.355469 C 196.25 150.816406 196.621094 151.125 197.136719 151.257812 C 198.6875 151.648438 200.628906 150.019531 203.082031 147.96875 C 205.984375 145.539062 209.714844 142.410156 213.332031 141.871094 C 213.808594 141.800781 214.328125 141.746094 214.882812 141.710938 C 216.199219 141.625 217.726562 141.628906 219.347656 141.714844 C 221.238281 157.285156 219.289062 178.304688 213.910156 198.4375 C 211.089844 209.011719 207.320312 219.328125 202.675781 228.464844 C 202.652344 228.5 202.632812 228.539062 202.617188 228.578125 C 199.375 234.941406 195.703125 240.730469 191.625 245.628906 C 184.46875 254.226562 172.308594 263.25 166.300781 267.472656 C 166.769531 264.691406 166.878906 260.597656 166.554688 256.464844 C 166.171875 251.566406 165.179688 246.535156 163.472656 243.488281 C 162.023438 240.914062 160.035156 239.128906 158.109375 237.609375 C 163.351562 237.09375 167.960938 236.074219 170.398438 234.476562 C 173.902344 232.183594 175.820312 228.894531 177.371094 226.238281 C 178.234375 224.75 178.976562 223.488281 179.703125 222.90625 C 181.710938 221.308594 182.347656 219.769531 182.542969 219.046875 C 184.234375 218.574219 185.765625 217.785156 186.988281 216.953125 C 188.921875 215.644531 190.195312 214.046875 190.285156 213.367188 C 190.304688 213.277344 190.308594 213.183594 190.296875 213.089844 C 190.222656 211.699219 189.003906 211.515625 187.117188 211.238281 C 185.886719 211.054688 184.230469 210.8125 182.503906 210.171875 C 181.113281 209.660156 178.59375 208.027344 175.796875 206.207031 C 171.492188 203.417969 166.542969 200.207031 163.324219 199.5625 C 159.109375 198.710938 154.738281 200.648438 151.4375 202.109375 C 151.242188 202.195312 151.050781 202.28125 150.859375 202.363281 C 151.570312 198.390625 153.125 189.714844 154.003906 184.828125 C 156.34375 184.550781 158.132812 183.957031 159.707031 183.433594 C 161.472656 182.847656 162.925781 182.359375 164.496094 182.675781 C 164.992188 182.777344 165.554688 182.84375 166.152344 182.871094 C 168.167969 182.964844 170.753906 182.644531 172.921875 181.859375 C 175.304688 181.003906 177.238281 179.566406 177.664062 177.453125 C 177.707031 177.238281 177.734375 177.023438 177.742188 176.800781 C 177.808594 175.402344 177.300781 173.511719 176.378906 171.648438 C 175.519531 169.898438 174.28125 168.128906 172.808594 166.761719 C 171.261719 165.328125 169.441406 164.335938 167.488281 164.242188 C 166.457031 164.195312 165.410156 164.398438 164.359375 164.917969 C 161.4375 166.359375 158.828125 169 156.757812 171.960938 C 154.300781 175.476562 152.589844 179.488281 152.050781 182.480469 L 152.023438 182.625 C 149.105469 182.675781 146.371094 181.777344 143.863281 180.960938 C 141.632812 180.230469 139.574219 179.558594 137.566406 179.558594 L 137.546875 179.558594 C 136.035156 179.558594 134.1875 179.558594 132.636719 179.195312 C 130.425781 178.675781 128.714844 177.269531 129.601562 173.476562 C 132.566406 160.765625 135.4375 144.65625 135.121094 129.167969 C 134.800781 113.539062 131.238281 98.558594 121.269531 88.292969 C 119.628906 86.59375 108.558594 80.839844 96.753906 77.777344 C 89.570312 75.914062 82.054688 75.007812 76.082031 76.53125 C 70.039062 78.082031 65.371094 81.90625 61.917969 86.253906 C 58.273438 90.859375 56 96.125 54.925781 99.867188 C 54.816406 100.050781 54.753906 100.265625 54.757812 100.484375 C 54.285156 102.273438 54.113281 103.648438 54.21875 104.335938 C 54.539062 106.441406 60.65625 112.195312 67.707031 116.640625 C 72.832031 119.871094 78.503906 122.507812 82.886719 122.703125 C 89.222656 122.984375 95.390625 120.480469 100.28125 118.503906 C 103.128906 117.351562 105.515625 116.378906 107.007812 116.335938 C 112.699219 116.148438 114.65625 115.742188 114.660156 115.871094 C 114.664062 116.039062 111.476562 116.6875 108.761719 117.53125 C 106.414062 118.257812 104.339844 118.902344 103.871094 119.515625 C 103.480469 120.03125 103.578125 120.765625 104.089844 121.160156 C 104.609375 121.554688 105.339844 121.457031 105.734375 120.941406 C 105.75 120.917969 107.480469 120.378906 109.445312 119.769531 C 112.953125 118.683594 117.050781 117.410156 117 115.796875 C 116.957031 114.535156 114.367188 113.75 106.933594 113.988281 C 105.007812 114.054688 102.449219 115.089844 99.398438 116.320312 C 94.71875 118.222656 88.800781 120.617188 82.984375 120.359375 C 79.0625 120.1875 73.789062 117.703125 68.957031 114.65625 C 62.40625 110.523438 56.78125 105.5625 56.539062 103.988281 C 56.464844 103.5 56.566406 102.597656 56.855469 101.410156 C 58.597656 100.824219 63.882812 98.859375 67.828125 95.503906 C 69.578125 94.015625 73.679688 93.191406 78.597656 92.800781 C 85.449219 92.253906 93.734375 92.597656 99.710938 93.171875 C 105.625 93.742188 113.164062 95.679688 118.441406 97.039062 C 122.230469 98.015625 124.9375 98.714844 125.703125 98.324219 C 125.714844 98.316406 125.730469 98.308594 125.742188 98.300781 C 130.617188 107.144531 132.550781 117.992188 132.777344 129.214844 C 133.09375 144.445312 130.25 160.367188 127.3125 172.941406 C 126 178.558594 128.671875 180.679688 132.105469 181.480469 C 133.929688 181.910156 135.917969 181.910156 137.546875 181.910156 L 137.566406 181.910156 C 139.214844 181.910156 141.101562 182.523438 143.136719 183.191406 C 145.699219 184.03125 148.484375 184.945312 151.597656 184.972656 C 150.582031 190.628906 148.820312 200.476562 148.320312 203.28125 C 147.355469 203.359375 146.378906 202.90625 145.242188 202.378906 C 143.640625 201.636719 141.78125 200.773438 139.097656 200.691406 C 136.566406 200.625 133.210938 201.714844 129.988281 203.277344 C 126.273438 205.082031 122.648438 207.546875 120.636719 209.585938 C 117.316406 212.949219 106.917969 215.183594 106.886719 215.195312 C 106.253906 215.332031 105.855469 215.953125 105.992188 216.589844 C 106.128906 217.222656 106.75 217.628906 107.382812 217.488281 C 107.414062 217.484375 118.484375 215.101562 122.308594 211.230469 C 124.148438 209.367188 127.511719 207.089844 131.003906 205.390625 C 133.9375 203.96875 136.90625 202.972656 139.03125 203.039062 C 141.222656 203.101562 142.855469 203.859375 144.261719 204.511719 C 145.953125 205.296875 147.382812 205.957031 149.203125 205.511719 C 149.9375 205.976562 151.703125 207.507812 151.9375 211.554688 C 152.109375 214.542969 149.023438 215.472656 147.515625 215.925781 C 147.074219 216.058594 146.699219 216.171875 146.40625 216.339844 C 145.703125 216.148438 145.109375 215.964844 144.589844 215.800781 C 142.46875 215.140625 141.417969 214.8125 138.785156 215.496094 C 137.621094 215.796875 134.132812 216.226562 130.28125 216.691406 C 125.410156 217.289062 119.964844 217.949219 117.5625 218.589844 C 116.074219 218.984375 115.3125 219.628906 115.574219 220.617188 C 115.808594 221.496094 120.535156 227.578125 126.519531 232.085938 C 129.933594 234.664062 133.800781 236.804688 137.570312 237.332031 C 142.304688 238 148.675781 238.214844 154.625 237.875 C 154.894531 238.089844 155.171875 238.300781 155.449219 238.515625 C 157.542969 240.121094 159.898438 241.921875 161.421875 244.636719 C 162.953125 247.363281 163.855469 252.039062 164.21875 256.652344 C 164.652344 262.175781 164.339844 267.476562 163.4375 269.113281 C 163.277344 269.40625 163.050781 269.664062 162.765625 269.894531 C 162.738281 269.914062 162.722656 269.925781 162.71875 269.925781 C 162.667969 269.960938 162.621094 270 162.574219 270.039062 C 160.128906 271.75 153.875 271.671875 144.1875 271.558594 L 143.574219 271.550781 C 137.671875 271.476562 132.535156 271.050781 127.558594 269.722656 C 122.609375 268.398438 117.804688 266.171875 112.539062 262.492188 C 104.425781 256.828125 96.378906 249.605469 89.035156 241.355469 C 89.023438 241.339844 89.011719 241.324219 88.996094 241.3125 C 84.320312 236.050781 79.925781 230.375 75.996094 224.421875 C 66.859375 210.585938 60.210938 195.265625 58.160156 180.203125 C 57.253906 173.535156 56.550781 166.847656 55.972656 161.332031 C 55.265625 154.609375 54.734375 149.597656 54.191406 148.234375 C 52.75 144.628906 51.191406 143.957031 47.761719 142.480469 C 46.847656 142.089844 45.785156 141.628906 44.683594 141.101562 C 39.996094 138.84375 41.066406 125.054688 41.066406 125.015625 C 41.113281 124.371094 40.628906 123.804688 39.980469 123.761719 C 39.335938 123.714844 38.773438 124.203125 38.730469 124.851562 C 38.726562 124.894531 37.523438 140.257812 43.675781 143.210938 C 44.980469 143.839844 45.976562 144.269531 46.835938 144.640625 C 49.652344 145.855469 50.9375 146.40625 52.019531 149.109375 C 52.441406 150.167969 52.953125 155.035156 53.636719 161.574219 C 54.222656 167.097656 54.925781 173.796875 55.839844 180.511719 C 57.9375 195.949219 64.722656 211.605469 74.039062 225.714844 C 77.964844 231.660156 82.34375 237.332031 87.011719 242.601562 C 88.472656 255.855469 83.363281 281.289062 79.804688 299.011719 C 79.113281 302.457031 78.476562 305.621094 78 308.113281 C 77.882812 308.75 78.300781 309.363281 78.933594 309.480469 C 79.574219 309.601562 80.183594 309.179688 80.304688 308.546875 C 80.84375 305.703125 81.445312 302.71875 82.097656 299.46875 C 85.433594 282.859375 90.121094 259.542969 89.566406 245.414062 C 96.402344 252.761719 103.773438 259.230469 111.199219 264.414062 C 116.714844 268.269531 121.753906 270.601562 126.957031 271.992188 C 132.132812 273.375 137.449219 273.820312 143.542969 273.890625 L 144.160156 273.898438 C 154.117188 274.019531 160.710938 274.097656 163.914062 271.9375 C 163.945312 271.921875 163.976562 271.902344 164.007812 271.882812 C 164.0625 271.84375 183.429688 259.128906 193.421875 247.125 C 197.5625 242.148438 201.289062 236.296875 204.582031 229.875 C 206.460938 228.714844 217.804688 221.78125 228.695312 217.054688 C 234.667969 214.460938 240.90625 210.613281 246.285156 206.484375 C 251.9375 202.148438 256.671875 197.484375 259.214844 193.605469 C 263.277344 187.398438 261.800781 175.460938 261.050781 169.429688"/></g></svg>